{"title":"Lost S01E05 - AVM","uid":5033213,"size":141514303,"categoryP":"video","categoryS":"tv_shows","magnet":"?xt=urn:btih:fd5dfdd4115142326937edfe5d2da66ee79e4722&amp;dn=Lost+S01E05+-+AVM&amp;tr=udp%3A%2F%2Ftracker.openbittorrent.com%3A80&amp;tr=udp%3A%2F%2Fopen.demonii.com%3A1337&amp;tr=udp%3A%2F%2Ftracker.coppersurfer.tk%3A6969&amp;tr=udp%3A%2F%2Fexodus.desync.com%3A6969","seeders":1,"leechers":0,"uploader":"SysProfile","files":2,"time":1248988697,"description":"AVIDMobile - http://www.avidmobile.com.ar (Mobile media)\n\nVideo\nID : 1\nFormat : MPEG-4 Visual\nFormat profile : Simple@L1\nFormat settings, BVOP : No\nFormat settings, QPel : No\nFormat settings, GMC : No warppoints\nFormat settings, Matrix : Default (H.263)\nCodec ID : 20\nDuration : 42mn 33s\nBit rate mode : Variable\nBit rate : 479 Kbps\nMaximum bit rate : 3 389 Kbps\nWidth : 320 pixels\nHeight : 240 pixels\nDisplay aspect ratio : 4/3\nFrame rate mode : Variable\nFrame rate : 23.976 fps\nMinimum frame rate : 23.974 fps\nMaximum frame rate : 23.981 fps\nResolution : 24 bits\nColorimetry : 4:2:0\nScan type : Progressive\nBits/(Pixel*Frame) : 0.260\nStream size : 146 MiB (88%)\n\nAudio\nID : 2\nFormat : AAC\nFormat/Info : Advanced Audio Codec\nFormat version : Version 4\nFormat profile : LC\nFormat settings, SBR : No\nCodec ID : 40\nDuration : 42mn 33s\nBit rate mode : Variable\nBit rate : 63.4 Kbps\nMaximum bit rate : 152 Kbps\nChannel(s) : 2 channels\nChannel positions : L R\nSampling rate : 22.05 KHz\nResolution : 16 bits\nStream size : 19.3 MiB (12%)","torrent":{"xt":"urn:btih:fd5dfdd4115142326937edfe5d2da66ee79e4722","amp;dn":"Lost+S01E05+-+AVM","amp;tr":["udp%3A%2F%2Ftracker.openbittorrent.com%3A80","udp%3A%2F%2Fopen.demonii.com%3A1337","udp%3A%2F%2Ftracker.coppersurfer.tk%3A6969","udp%3A%2F%2Fexodus.desync.com%3A6969"],"infoHash":"fd5dfdd4115142326937edfe5d2da66ee79e4722","infoHashBuffer":{"type":"Buffer","data":[253,93,253,212,17,81,66,50,105,55,237,254,93,45,166,110,231,158,71,34]},"announce":[],"urlList":[]}}